<svg width="114" height="32" viewBox="0 0 114 32" fill="none" xmlns="http://www.w3.org/2000/svg">
<mask id="mask0_1017_1022" style="mask-type:luminance" maskUnits="userSpaceOnUse" x="0" y="0" width="114" height="32">
<path d="M114 0H0V32H114V0Z" fill="white"/>
</mask>
<g mask="url(#mask0_1017_1022)">
<mask id="mask1_1017_1022" style="mask-type:luminance" maskUnits="userSpaceOnUse" x="0" y="0" width="114" height="32">
<path d="M114 0H0V32H114V0Z" fill="white"/>
</mask>
<g mask="url(#mask1_1017_1022)">
<path d="M114 0.244596V31.2285H107.839V18.2642H93.6567V31.2285H87.515V0.244596H93.6567V13.3532H107.839V0.244596H114ZM45.5454 0.244596H42.9223L29.5845 31.2285H36.0311L45.3929 8.84985H45.7042L54.9771 31.2285H61.5063L48.1685 0.244596H45.5454ZM60.5599 24.4422L60.6234 24.599C61.0617 25.7279 63.6149 31.655 72.005 31.9749C85.4571 32.4829 85.2158 23.909 85.2158 22.1466C85.1252 20.7263 84.6548 19.355 83.8526 18.1728C83.0504 16.9905 81.945 16.0395 80.6492 15.4167C75.6062 12.7824 67.0192 13.1023 67.0192 8.02194C67.0192 6.46647 68.4229 4.25871 72.583 4.20853C76.6161 4.13327 78.7247 6.71735 79.0105 8.18501L83.6089 6.84907C82.7959 5.07408 81.0684 0.112883 72.367 0.112883C70.8204 0.0758161 69.2781 0.287656 67.8004 0.740088C62.4018 2.54644 61.4491 6.6609 61.4491 8.71186C61.519 20.5786 79.3662 17.4927 79.163 23.6268C79.0931 25.8722 76.8638 27.6535 72.3861 27.459C67.7433 27.2709 66.1554 24.4547 65.3996 22.8114L60.5599 24.4422ZM16.0689 4.72284C20.102 4.6413 22.4964 6.70481 22.9346 8.07839L27.8569 6.74871C27.0376 4.99881 24.2113 0.34495 16.2403 -0.0188293C1.13689 -0.0188293 0 13.9741 0 15.3916C0 30.1246 11.0831 31.7617 15.3956 31.9561C19.631 32.1022 23.8708 31.8375 28.0538 31.1658V13.3532H12.474V18.2767H22.2042C22.2284 18.2767 22.2518 18.2857 22.2695 18.302C22.2872 18.3184 22.2979 18.3407 22.2995 18.3645V27.0012C22.297 27.0271 22.2874 27.0519 22.2717 27.0729C22.2561 27.0939 22.2349 27.1103 22.2106 27.1203C20.2658 27.4397 18.2927 27.5595 16.3229 27.4778C14.9574 27.4339 6.40849 27.0952 6.40849 16.0376C6.40849 8.92511 10.0033 4.78556 16.0689 4.74793" fill="#D51468"/>
</g>
</g>
</svg>
