<svg width="114" height="113" viewBox="0 0 114 113" fill="none" xmlns="http://www.w3.org/2000/svg">
<path d="M68.6961 81.2481L59.7863 67.7518C59.2995 67.0968 58.5901 66.6422 57.7915 66.4738C56.993 66.3053 56.1604 66.4345 55.4505 66.837C55.4505 66.837 55.3377 66.9122 55.275 66.9749C54.5983 67.3759 53.0945 68.3784 51.9041 69.1929C50.9828 69.8244 50.1413 70.565 49.3978 71.3984C47.9442 69.4686 45.9392 66.5112 44.2474 63.8796C42.5557 61.2481 40.5757 58.3408 39.3727 56.2857C40.4441 55.9076 41.4664 55.4028 42.4179 54.7819C44.3101 53.5288 45.2249 52.9147 45.6384 52.614L45.889 52.4761C46.239 52.2468 46.5403 51.9507 46.7757 51.6048C47.0111 51.2589 47.176 50.87 47.261 50.4603C47.346 50.0506 47.3493 49.6282 47.2709 49.2172C47.1924 48.8062 47.0337 48.4147 46.8038 48.0651L37.9066 34.6065C37.6184 34.1682 37.226 33.8083 36.7646 33.559C36.3031 33.3097 35.787 33.1787 35.2625 33.1779C34.7162 33.1689 34.1782 33.3121 33.7086 33.5914C30.748 35.1947 28.0132 37.1837 25.5758 39.5062C23.7621 41.4337 22.4429 43.7724 21.7314 46.3216C21.0199 48.8708 20.9372 51.5546 21.4905 54.1428C22.5432 59.9699 30.3627 71.3232 31.1898 72.5137C32.0169 73.7042 39.3853 85.4586 44.3352 88.7167C47.1585 90.6254 50.4765 91.6705 53.884 91.7243C55.1779 91.727 56.4668 91.5627 57.7186 91.2355C58.2922 91.0928 58.857 90.917 59.4104 90.7092C62.428 89.4207 65.2601 87.735 67.8314 85.6967C68.1868 85.4635 68.4918 85.1615 68.7285 84.8086C68.9653 84.4556 69.1289 84.0588 69.2098 83.6416C69.2968 83.2289 69.296 82.8025 69.2075 82.3902C69.119 81.9778 68.9448 81.5887 68.6961 81.2481Z" fill="#FFE3EC"/>
<path d="M53.7963 92.3509C50.2665 92.2989 46.8292 91.2141 43.909 89.2306C38.9591 85.985 31.9291 75.0075 30.5632 72.8396C29.6985 71.5865 21.8664 60.3083 20.7887 54.2557C20.2166 51.5692 20.3042 48.7841 21.0441 46.139C21.7839 43.4938 23.154 41.0674 25.0368 39.0677C27.5187 36.7004 30.3042 34.6735 33.3201 33.0401C33.8793 32.7044 34.5226 32.5348 35.1747 32.5514C35.8035 32.5476 36.4232 32.7017 36.9771 32.9994C37.531 33.2972 38.0014 33.7291 38.3451 34.2557L47.2424 47.7268C47.5232 48.1435 47.7177 48.6121 47.8144 49.1052C47.911 49.5983 47.9079 50.1057 47.8051 50.5976C47.7023 51.0894 47.5019 51.5556 47.2159 51.9687C46.9298 52.3818 46.5639 52.7333 46.1396 53.0025L45.6008 53.3659C45.1246 53.7168 44.2098 54.3308 42.681 55.3208C41.8859 55.8147 41.0469 56.2342 40.1747 56.574C41.4278 58.579 43.0695 61.2106 44.6484 63.4913C46.2273 65.9975 47.9817 68.5038 49.3477 70.4211C50.0083 69.7774 50.7255 69.1945 51.4905 68.6792C53.2574 67.4261 54.3476 66.7494 54.8865 66.4361L55.0494 66.3233C55.895 65.8239 56.8964 65.6575 57.858 65.8568C58.8196 66.0561 59.6724 66.6067 60.2499 67.401L69.1597 80.8973C69.7095 81.7271 69.9078 82.741 69.7111 83.7168C69.6238 84.2248 69.4331 84.7094 69.1507 85.1405C68.8683 85.5717 68.5003 85.9402 68.0695 86.2231C65.4861 88.3198 62.6167 90.0372 59.5481 91.3233C58.9715 91.5479 58.3813 91.7362 57.7812 91.8872C56.4782 92.2114 55.1389 92.3672 53.7963 92.3509ZM35.1747 33.8045C34.737 33.785 34.3027 33.8893 33.9216 34.1053C31.0346 35.6842 28.3641 37.6302 25.9767 39.8948C24.2325 41.7501 22.9654 44.0014 22.2843 46.4551C21.6033 48.9087 21.5286 51.4911 22.0669 53.98C23.107 59.8196 31.3025 71.599 31.6534 72.1003C32.4804 73.4286 39.7988 84.9699 44.6359 88.1404C46.487 89.4339 48.5886 90.3252 50.8052 90.7569C53.0218 91.1885 55.3043 91.151 57.5055 90.6466C58.059 90.5104 58.6032 90.3388 59.1346 90.1329C61.9069 88.9523 64.5177 87.4237 66.904 85.584L67.4805 85.208C67.7632 85.0203 68.0061 84.7787 68.1953 84.497C68.3845 84.2153 68.5163 83.8991 68.5832 83.5664C68.7156 82.9165 68.5849 82.2405 68.2198 81.6867L59.31 68.203C58.9143 67.6866 58.3472 67.3284 57.7109 67.1929C57.0745 67.0574 56.4107 67.1534 55.8389 67.4637L55.676 67.5765C55.112 67.9148 54.0218 68.6416 52.2925 69.807C51.3967 70.4036 50.5799 71.111 49.8614 71.9123L49.3477 72.4887L48.884 71.8747C47.4554 69.9825 45.4629 67.0627 43.7086 64.2807C41.9542 61.7745 40.0243 58.7419 38.8213 56.6617L38.4328 56.01L39.1597 55.7594C40.1828 55.3968 41.1589 54.913 42.067 54.3183C43.8965 53.0652 44.8113 52.5013 45.2624 52.1755L45.5381 52.0126H45.6133C46.1616 51.637 46.5383 51.0589 46.6605 50.4056C46.7827 49.7523 46.6404 49.0772 46.2649 48.5288L37.3677 35.0577C37.149 34.6789 36.835 34.3639 36.4569 34.1441C36.0788 33.9242 35.6497 33.8072 35.2123 33.8045H35.1747Z" fill="#353B50"/>
<path d="M63.571 35.0576L67.6437 35.3082C67.582 37.2636 66.8522 39.1388 65.576 40.6215C64.9586 41.2999 64.1998 41.8344 63.3532 42.1874C62.5066 42.5403 61.5927 42.7031 60.6763 42.6641C59.581 42.7142 58.4909 42.4866 57.5072 42.0024C56.5235 41.5182 55.6781 40.7932 55.0497 39.8947C53.651 37.6455 52.9773 35.0208 53.1199 32.3759C52.9675 29.7041 53.6366 27.0497 55.0372 24.7694C55.6767 23.862 56.5371 23.1326 57.537 22.6502C58.5368 22.1678 59.6432 21.9483 60.7515 22.0125C64.9369 22.0125 67.2051 24.6065 67.5811 29.7694L63.5585 30.0702C63.4457 27.0877 62.5184 25.5965 60.764 25.5965C60.301 25.6106 59.851 25.7527 59.4638 26.0071C59.0767 26.2615 58.7677 26.6182 58.571 27.0376C57.8894 28.8174 57.6113 30.7262 57.7565 32.6265C57.6322 34.357 57.8889 36.0937 58.5084 37.7143C58.7092 38.1361 59.0279 38.4908 59.426 38.7355C59.824 38.9801 60.2844 39.1042 60.7515 39.0927C62.343 39.0802 63.2953 37.7393 63.571 35.0576Z" fill="#353B50"/>
<path d="M73.8465 32.2381L69.9242 31.8622C69.9832 31.1883 70.1833 30.5344 70.5115 29.9429C70.8396 29.3513 71.2885 28.8354 71.829 28.4286C73.0138 27.5688 74.4511 27.1279 75.9142 27.1755C77.0866 27.123 78.2503 27.4009 79.2725 27.9775C80.0083 28.3907 80.5726 29.0527 80.8641 29.8446C81.1202 30.9151 81.2298 32.0154 81.1898 33.1153V39.0301C81.0865 40.1563 81.1456 41.2916 81.3653 42.401H77.6059C77.4343 41.6537 77.3668 40.8862 77.4054 40.1203C77.0551 40.9004 76.4839 41.5607 75.7622 42.0196C75.0406 42.4784 74.2003 42.7156 73.3453 42.7018C72.3063 42.7466 71.2922 42.3769 70.5257 41.6742C70.1461 41.2733 69.8541 40.7977 69.6686 40.2778C69.483 39.7578 69.4079 39.2048 69.448 38.6542C69.4073 37.931 69.5331 37.2082 69.8155 36.5413C70.0979 35.8744 70.5295 35.2811 71.0771 34.807C72.1798 33.9048 74.1765 33.3659 77.0671 33.1905V32.6266C77.1152 31.9279 77.0126 31.227 76.7663 30.5714C76.6418 30.3803 76.4674 30.2267 76.2621 30.1273C76.0567 30.028 75.8281 29.9865 75.6009 30.0075C74.5107 29.9699 73.9342 30.7218 73.8465 32.2381ZM77.0545 35.2832C76.1415 35.3258 75.2538 35.5973 74.4731 36.0727C74.1976 36.3238 73.985 36.636 73.8522 36.9842C73.7194 37.3325 73.6703 37.707 73.7087 38.0777C73.7087 39.3309 74.1598 39.9449 75.0871 39.9449C75.3645 39.9279 75.6334 39.8423 75.8696 39.6957C76.1059 39.5492 76.302 39.3463 76.4405 39.1053C76.941 38.1549 77.1543 37.0795 77.0545 36.01V35.2832Z" fill="#353B50"/>
<path d="M84.1973 22.3508H88.3326V42.401H84.1973V22.3508Z" fill="#353B50"/>
<path d="M91.3906 22.3508H95.5385V42.401H91.3906V22.3508Z" fill="#353B50"/>
<path d="M67.8125 60.4417C69.6157 59.3081 71.7953 58.9372 73.872 59.4107C75.9486 59.8841 77.7521 61.1631 78.8857 62.9663C80.0193 64.7695 80.3902 66.9492 79.9168 69.0258C79.4433 71.1024 78.1643 72.9059 76.3611 74.0395" stroke="#353B50" stroke-miterlimit="10"/>
<path d="M64.5 55.2926C66.0741 54.2686 67.8359 53.5676 69.6832 53.2304C71.5305 52.8932 73.4264 52.9264 75.2607 53.3282C77.0951 53.73 78.8313 54.4922 80.3685 55.5708C81.9057 56.6493 83.2132 58.0225 84.2152 59.6107C85.2171 61.1989 85.8934 62.9703 86.2049 64.8222C86.5163 66.674 86.4566 68.5692 86.0293 70.3978C85.602 72.2263 84.8156 73.9517 83.7158 75.4738C82.6159 76.9958 81.2246 78.284 79.6226 79.2637" stroke="#353B50" stroke-miterlimit="10"/>
</svg>
