<svg width="114" height="113" viewBox="0 0 114 113" fill="none" xmlns="http://www.w3.org/2000/svg">
<path d="M67.9371 81.0336L59.051 67.5733C58.5654 66.9198 57.8569 66.4673 57.0599 66.3014C56.2628 66.1355 55.4326 66.2679 54.7267 66.6734L54.5517 66.7984C53.8768 67.1983 52.3771 68.2107 51.1898 69.0106C50.271 69.6404 49.4317 70.3789 48.6902 71.2102C47.2404 69.2855 45.2407 66.336 43.5535 63.7114C41.8663 61.0868 39.8916 58.1873 38.6918 56.1251C39.7625 55.7533 40.7826 55.2494 41.7288 54.6254C43.616 53.3756 44.5283 52.7757 44.9408 52.4632L45.1907 52.3257C45.5397 52.097 45.8402 51.8017 46.075 51.4567C46.3098 51.1117 46.4743 50.7238 46.559 50.3152C46.6438 49.9066 46.6471 49.4853 46.5689 49.0754C46.4906 48.6655 46.3323 48.2751 46.1031 47.9264L37.2295 34.4911C36.9421 34.054 36.5507 33.695 36.0905 33.4464C35.6303 33.1977 35.1155 33.0671 34.5924 33.0663C34.0476 33.0574 33.511 33.2002 33.0427 33.4788C30.09 35.0778 27.3625 37.0614 24.9315 39.3778C23.1193 41.2979 21.8024 43.6306 21.0947 46.1741C20.3869 48.7177 20.3097 51.3954 20.8696 53.9755C21.907 59.7995 29.7057 71.1227 30.5306 72.2975C31.3554 73.4723 38.7043 85.1955 43.591 88.4449C46.4103 90.3508 49.7242 91.3932 53.1269 91.4445C55.0067 91.4489 56.8711 91.1057 58.6261 90.4321C61.6385 89.1526 64.4637 87.4709 67.0247 85.4329C67.3778 85.2018 67.6812 84.9026 67.9173 84.5528C68.1533 84.203 68.3172 83.8096 68.3995 83.3957C68.4882 82.9913 68.4929 82.573 68.4134 82.1667C68.3338 81.7604 68.1717 81.3747 67.9371 81.0336Z" fill="#FFE3EC"/>
<path d="M67.9371 81.0336L59.051 67.5733C58.5654 66.9198 57.8569 66.4673 57.0599 66.3014C56.2628 66.1355 55.4326 66.2679 54.7267 66.6734L54.5517 66.7984C53.8768 67.1983 52.3771 68.2107 51.1898 69.0106C50.271 69.6404 49.4317 70.3789 48.6902 71.2102C47.2404 69.2855 45.2407 66.336 43.5535 63.7114C41.8663 61.0868 39.8916 58.1873 38.6918 56.1251C39.7625 55.7533 40.7826 55.2494 41.7288 54.6254C43.616 53.3756 44.5283 52.7757 44.9408 52.4632L45.1907 52.3257C45.5397 52.097 45.8402 51.8017 46.075 51.4567C46.3098 51.1117 46.4743 50.7238 46.559 50.3152C46.6438 49.9066 46.6471 49.4853 46.5689 49.0754C46.4906 48.6655 46.3323 48.2751 46.1031 47.9264L37.2295 34.4911C36.9421 34.054 36.5507 33.695 36.0905 33.4464C35.6303 33.1977 35.1155 33.0671 34.5924 33.0663C34.0476 33.0574 33.511 33.2002 33.0427 33.4788C30.09 35.0778 27.3625 37.0614 24.9315 39.3778C23.1193 41.2979 21.8024 43.6306 21.0947 46.1741C20.3869 48.7177 20.3097 51.3954 20.8696 53.9755C21.907 59.7995 29.7057 71.1227 30.5306 72.2975C31.3554 73.4723 38.7043 85.1955 43.591 88.4449C46.4103 90.3508 49.7242 91.3932 53.1269 91.4445C55.0067 91.4489 56.8711 91.1057 58.6261 90.4321C61.6385 89.1526 64.4637 87.4709 67.0247 85.4329C67.3778 85.2018 67.6812 84.9026 67.9173 84.5528C68.1533 84.203 68.3172 83.8096 68.3995 83.3957C68.4882 82.9913 68.4929 82.573 68.4134 82.1667C68.3338 81.7604 68.1717 81.3747 67.9371 81.0336Z" stroke="#353B50" stroke-miterlimit="10"/>
<path d="M58.6139 22.0806H61.9634V38.9529H65.2754V42.2148H54.2021V38.9529H57.5766V27.1423C56.6029 28.1622 55.4616 29.0077 54.2021 29.6419V25.73C55.926 24.8569 57.4332 23.6101 58.6139 22.0806Z" fill="#353B50"/>
<path d="M80.1727 27.2298L76.6108 28.3046C76.2859 26.1674 75.461 25.1051 74.1112 25.1051C73.6991 25.1047 73.2954 25.2222 72.9477 25.4436C72.6001 25.665 72.323 25.9812 72.149 26.3549C71.5291 28.1052 71.2739 29.9639 71.3992 31.8165C71.7241 31.1247 72.2433 30.5424 72.8936 30.1407C73.5439 29.739 74.297 29.5353 75.0611 29.5544C75.7706 29.5414 76.4744 29.6847 77.1223 29.9741C77.7703 30.2635 78.3466 30.692 78.8105 31.2291C79.8694 32.5151 80.4048 34.1528 80.3102 35.8159C80.3818 36.7271 80.2608 37.6431 79.9551 38.5044C79.6493 39.3657 79.1656 40.153 78.5355 40.8151C77.9295 41.3839 77.2161 41.8261 76.4371 42.1158C75.6581 42.4055 74.8292 42.5369 73.9988 42.5023C69.5745 42.5023 67.3623 39.1695 67.3623 32.5039C67.3623 28.8795 67.9747 26.2549 69.1995 24.5052C69.7646 23.6962 70.5248 23.0429 71.4096 22.6059C72.2945 22.169 73.2753 21.9625 74.2612 22.0056C75.6825 21.948 77.0738 22.4251 78.1606 23.3429C79.246 24.3778 79.9543 25.746 80.1727 27.2298ZM76.0234 35.8284C76.0234 33.7787 75.2985 32.7539 73.8613 32.7539C72.424 32.7539 71.5866 33.8787 71.5866 36.1158C71.5208 36.9574 71.7362 37.797 72.199 38.5029C72.3817 38.7543 72.6228 38.9573 72.9015 39.0945C73.1803 39.2317 73.4882 39.2989 73.7988 39.2903C75.286 39.3278 76.0234 38.178 76.0234 35.8284Z" fill="#353B50"/>
<path d="M83.6972 22.218H94.383L93.9581 26.1299H86.9467L86.6967 30.6417C87.0768 30.0937 87.5884 29.6498 88.1845 29.3506C88.7805 29.0515 89.4422 28.9067 90.1087 28.9294C90.8062 28.927 91.4972 29.0639 92.141 29.3322C92.7849 29.6005 93.3687 29.9947 93.8581 30.4917C94.4486 31.1741 94.8956 31.9685 95.1726 32.8273C95.4496 33.6862 95.5508 34.592 95.4703 35.4909C95.5422 36.4481 95.4149 37.4098 95.0965 38.3154C94.7782 39.221 94.2756 40.0508 93.6206 40.7525C92.314 41.864 90.6657 42.4939 88.9509 42.5371C87.236 42.5803 85.5581 42.0343 84.1971 40.99C83.6021 40.4729 83.1148 39.8436 82.7631 39.1381C82.4114 38.4325 82.2022 37.6646 82.1475 36.8782L86.1468 36.2158C86.3718 38.0405 87.2341 38.9653 88.7339 38.9653C90.2337 38.9653 91.2335 37.878 91.2335 35.7283C91.279 34.903 91.0506 34.0858 90.5836 33.4037C90.3655 33.1129 90.0794 32.8799 89.7504 32.7252C89.4214 32.5705 89.0595 32.4988 88.6964 32.5164C88.2095 32.4926 87.7286 32.6322 87.3301 32.913C86.9316 33.1937 86.6383 33.5996 86.4968 34.0661L83.0473 33.4037L83.6972 22.218Z" fill="#353B50"/>
<path d="M65.7627 59.7245C67.5659 58.5909 69.7455 58.2201 71.8222 58.6935C73.8988 59.167 75.7023 60.446 76.8359 62.2491C77.9695 64.0523 78.3404 66.232 77.867 68.3086C77.3935 70.3853 76.1145 72.1888 74.3113 73.3224" stroke="#353B50" stroke-miterlimit="10"/>
<path d="M62.4512 54.5754C64.0252 53.5515 65.7871 52.8505 67.6344 52.5132C69.4817 52.176 71.3776 52.2093 73.2119 52.611C75.0462 53.0128 76.7824 53.7751 78.3196 54.8536C79.8568 55.9321 81.1644 57.3054 82.1663 58.8935C83.1683 60.4817 83.8446 62.2532 84.156 64.105C84.4675 65.9568 84.4078 67.8521 83.9805 69.6806C83.5532 71.5092 82.7668 73.2346 81.6669 74.7566C80.5671 76.2786 79.1758 77.5669 77.5738 78.5466" stroke="#353B50" stroke-miterlimit="10"/>
</svg>
