<svg width="114" height="113" viewBox="0 0 114 113" fill="none" xmlns="http://www.w3.org/2000/svg">
<rect x="17.875" y="31.5" width="80.25" height="51" rx="3.5" fill="#FFE3EC" stroke="#353B50"/>
<g clip-path="url(#clip0_1230_4486)">
<mask id="mask0_1230_4486" style="mask-type:luminance" maskUnits="userSpaceOnUse" x="24" y="58" width="56" height="16">
<path d="M79.1247 58.0834H24.958V73.25H79.1247V58.0834Z" fill="white"/>
</mask>
<g mask="url(#mask0_1230_4486)">
<mask id="mask1_1230_4486" style="mask-type:luminance" maskUnits="userSpaceOnUse" x="24" y="58" width="56" height="16">
<path d="M79.1247 58.0834H24.958V73.25H79.1247V58.0834Z" fill="white"/>
</mask>
<g mask="url(#mask1_1230_4486)">
<path d="M79.1247 58.1993V72.8844H76.1974V66.7399H69.4586V72.8844H66.5404V58.1993H69.4586V64.4122H76.1974V58.1993H79.1247ZM46.5987 58.1993H45.3524L39.015 72.8844H42.078L46.5263 62.2778H46.6742L51.0802 72.8844H54.1825L47.8451 58.1993H46.5987ZM53.7328 69.668L53.763 69.7423C53.9712 70.2774 55.1844 73.0866 59.1709 73.2382C65.5626 73.4789 65.448 69.4153 65.448 68.5799C65.4049 67.9068 65.1814 67.2569 64.8003 66.6965C64.4191 66.1362 63.8939 65.6854 63.2782 65.3903C60.882 64.1417 56.8019 64.2933 56.8019 61.8855C56.8019 61.1482 57.4689 60.1018 59.4455 60.0781C61.3618 60.0424 62.3638 61.2671 62.4996 61.9627L64.6845 61.3296C64.2982 60.4883 63.4773 58.1369 59.3429 58.1369C58.6081 58.1193 57.8752 58.2197 57.1731 58.4342C54.608 59.2903 54.1553 61.2404 54.1553 62.2124C54.1885 67.8368 62.6686 66.3742 62.572 69.2815C62.5388 70.3457 61.4795 71.19 59.352 71.0978C57.146 71.0086 56.3915 69.6739 56.0324 68.8951L53.7328 69.668ZM32.5931 60.3218C34.5094 60.2832 35.6471 61.2612 35.8553 61.9122L38.1941 61.282C37.8048 60.4526 36.4619 58.2469 32.6745 58.0745C25.4982 58.0745 24.958 64.7065 24.958 65.3784C24.958 72.3612 30.2241 73.1371 32.2732 73.2292C34.2856 73.2985 36.3001 73.173 38.2877 72.8547V64.4122H30.885V66.7458H35.5083C35.5198 66.7458 35.5309 66.7501 35.5393 66.7578C35.5477 66.7655 35.5528 66.7761 35.5535 66.7874V70.8808C35.5523 70.8931 35.5478 70.9049 35.5403 70.9148C35.5329 70.9247 35.5229 70.9325 35.5113 70.9373C34.5872 71.0887 33.6497 71.1455 32.7138 71.1067C32.0649 71.0859 28.003 70.9254 28.003 65.6846C28.003 62.3135 29.7111 60.3515 32.5931 60.3337" fill="#353B50"/>
</g>
</g>
</g>
<g clip-path="url(#clip1_1230_4486)">
<path d="M90.6638 44.9084H82.7559V40.5584C82.7559 39.46 83.1724 38.4065 83.9139 37.6297C84.6555 36.853 85.6612 36.4166 86.7098 36.4166C87.7585 36.4166 88.7642 36.853 89.5057 37.6297C90.2472 38.4065 90.6638 39.46 90.6638 40.5584V44.9084ZM84.2833 43.3084H89.1377V40.5584C89.1228 39.8944 88.8606 39.2629 88.407 38.7988C87.9534 38.3347 87.3445 38.0748 86.7105 38.0748C86.0764 38.0748 85.4675 38.3347 85.014 38.7988C84.5604 39.2629 84.2981 39.8944 84.2833 40.5584V43.3084Z" fill="#353B50"/>
<path d="M91.3956 43.1072H82.0217C81.9259 43.1072 81.831 43.1269 81.7424 43.1654C81.6539 43.2038 81.5735 43.2601 81.5057 43.3311C81.438 43.402 81.3842 43.4863 81.3475 43.579C81.3109 43.6718 81.292 43.7712 81.292 43.8715V51.9022C81.292 52.1049 81.3689 52.2994 81.5057 52.4427C81.6426 52.586 81.8282 52.6666 82.0217 52.6666H91.3956C91.5892 52.6666 91.7748 52.586 91.9116 52.4427C92.0484 52.2994 92.1253 52.1049 92.1253 51.9022V43.8715C92.1253 43.6688 92.0484 43.4744 91.9116 43.3311C91.7748 43.1877 91.5892 43.1072 91.3956 43.1072ZM87.2282 47.7884V50.2924H86.1891V47.7884C85.9546 47.6657 85.7665 47.4637 85.6553 47.2151C85.5441 46.9665 85.5163 46.6858 85.5765 46.4186C85.6366 46.1513 85.7811 45.9132 85.9866 45.7428C86.1921 45.5724 86.4466 45.4797 86.7087 45.4797C86.9708 45.4797 87.2252 45.5724 87.4307 45.7428C87.6362 45.9132 87.7807 46.1513 87.8409 46.4186C87.901 46.6858 87.8732 46.9665 87.762 47.2151C87.6508 47.4637 87.4628 47.6657 87.2282 47.7884Z" fill="#353B50"/>
</g>
<defs>
<clipPath id="clip0_1230_4486">
<rect width="54.1667" height="15.1667" fill="white" transform="translate(24.958 58.0834)"/>
</clipPath>
<clipPath id="clip1_1230_4486">
<rect width="10.8333" height="16.25" fill="white" transform="translate(81.292 36.4166)"/>
</clipPath>
</defs>
</svg>
