<svg width="114" height="113" viewBox="0 0 114 113" fill="none" xmlns="http://www.w3.org/2000/svg">
<path d="M31.269 89.8592C30.0018 89.8592 28.7866 89.3558 27.8906 88.4598C26.9946 87.5638 26.4912 86.3486 26.4912 85.0814V53.3689L27.6857 53.2614C28.2831 53.2113 28.8773 53.1275 29.4654 53.0106C31.8453 52.5021 34.0617 51.4103 35.9154 49.8334L36.7515 49.1167L37.5995 49.8453C40.2414 52.093 43.5969 53.3272 47.0655 53.3272C50.5342 53.3272 53.8896 52.093 56.5315 49.8453L57.3795 49.1286L58.2157 49.8453C60.5287 51.8274 63.4092 53.0273 66.4454 53.2734L67.6398 53.3809V89.8592H31.269Z" fill="#FFE3EC"/>
<path d="M67.6745 52.7358H67.0893H66.4801C63.5804 52.5023 60.8291 51.3566 58.6207 49.463L58.2026 48.9613L57.3784 48.2686L56.5543 48.9613L56.1243 49.3316C53.5953 51.4818 50.3839 52.6624 47.0644 52.6624C43.7449 52.6624 40.5336 51.4818 38.0046 49.3316L37.5626 48.9613L36.7026 48.2924L35.8784 48.9852L35.4484 49.3555C33.677 50.8617 31.5592 51.9043 29.2851 52.3894C28.7209 52.5023 28.1506 52.5821 27.5771 52.6283H26.9679L25.7734 52.7238V84.9738C25.7734 86.412 26.3448 87.7914 27.3617 88.8083C28.3787 89.8253 29.758 90.3966 31.1962 90.3966H68.224V52.7836L67.6745 52.7358ZM66.9818 89.2261H31.2679C30.1717 89.2166 29.1236 88.7745 28.3518 87.996C27.58 87.2175 27.147 86.1656 27.1471 85.0694V53.9422H27.7562C28.3556 53.8717 28.95 53.764 29.5359 53.6197C32.0167 53.0967 34.3279 51.9637 36.2607 50.323L36.6907 49.9527L37.1207 50.323C39.8802 52.6677 43.3835 53.955 47.0047 53.955C50.6259 53.955 54.1291 52.6677 56.8887 50.323L57.3187 49.9527L57.7487 50.323C60.1603 52.3882 63.1608 53.6419 66.3248 53.9063H66.934L66.9818 89.2261Z" fill="#353B50"/>
<path d="M67.7588 89.8592V53.3689L68.9532 53.2614C71.9838 53.0162 74.8597 51.8207 77.171 49.8453L78.0071 49.1167L78.8552 49.8334C80.7088 51.4103 82.9252 52.5021 85.3052 53.0106C85.8932 53.1275 86.4874 53.2113 87.0849 53.2614L88.2793 53.3689V85.0695C88.2793 86.3366 87.776 87.5519 86.88 88.4479C85.984 89.3439 84.7687 89.8473 83.5016 89.8473L67.7588 89.8592Z" fill="#DDDDDD"/>
<path d="M87.7177 52.688H87.1085C84.2032 52.4627 81.4457 51.3162 79.2371 49.4152L78.8071 48.9613L77.983 48.2686L77.1707 48.9613L76.7407 49.3316C74.5269 51.224 71.7723 52.3694 68.8693 52.6044H68.2602H67.6749H67.1016V90.4922H83.4655C84.177 90.4922 84.8816 90.3518 85.5389 90.0791C86.1961 89.8065 86.7931 89.4069 87.2957 88.9031C87.7983 88.3994 88.1966 87.8015 88.4678 87.1437C88.7391 86.4858 88.8779 85.781 88.8763 85.0694V52.8194L87.7177 52.688ZM87.6102 85.0694C87.6102 86.1697 87.1739 87.2252 86.3969 88.0044C85.62 88.7836 84.5658 89.2229 83.4655 89.2261H68.3677V53.9422H68.9768C72.1414 53.6801 75.1426 52.4261 77.553 50.3588L77.983 49.9886L78.4249 50.3588C80.3563 52.0016 82.6681 53.135 85.1496 53.6555C85.7603 53.7864 86.3787 53.8782 87.001 53.9302H87.6102V85.0694Z" fill="#353B50"/>
<g style="mix-blend-mode:multiply">
<path d="M47.0466 63.1035C46.5544 62.6148 45.8889 62.3406 45.1952 62.3406C44.5016 62.3406 43.8361 62.6148 43.3439 63.1035L34.3139 72.026C33.8273 72.5218 33.5547 73.1887 33.5547 73.8834C33.5547 74.578 33.8273 75.245 34.3139 75.7407L34.5289 75.9557C35.0352 76.3398 35.6631 76.5282 36.2972 76.4865C36.9313 76.4449 37.5291 76.1758 37.9808 75.7288L46.9511 66.7585C47.4412 66.2825 47.7256 65.6335 47.7435 64.9505C47.7613 64.2675 47.5112 63.6045 47.0466 63.1035Z" fill="#DDDDDD"/>
</g>
<g style="mix-blend-mode:multiply">
<path d="M59.1582 63.7844C58.8145 63.7833 58.4739 63.8503 58.1561 63.9815C57.8383 64.1127 57.5497 64.3056 57.3069 64.5489L42.0777 79.778C41.6081 80.2753 41.3508 80.936 41.3606 81.6199C41.3704 82.3037 41.6464 82.9568 42.13 83.4404C42.6136 83.9241 43.2667 84.2001 43.9506 84.2098C44.6345 84.2196 45.2952 83.9624 45.7924 83.4928L61.0096 68.2636C61.2562 68.0225 61.4519 67.7345 61.5853 67.4165C61.7186 67.0985 61.7869 66.757 61.786 66.4122C61.786 65.7153 61.5092 65.0469 61.0164 64.5541C60.5236 64.0613 59.8552 63.7844 59.1582 63.7844Z" fill="#DDDDDD"/>
</g>
<path d="M73.8982 76.0394C73.3691 76.0394 72.8618 75.8293 72.4877 75.4552C72.1136 75.0811 71.9034 74.5737 71.9034 74.0447V71.2616C71.8822 70.9875 71.9178 70.712 72.0081 70.4523C72.0984 70.1926 72.2414 69.9543 72.4282 69.7525C72.6149 69.5507 72.8414 69.3897 73.0933 69.2796C73.3453 69.1695 73.6172 69.1127 73.8922 69.1127C74.1671 69.1127 74.4391 69.1695 74.691 69.2796C74.943 69.3897 75.1694 69.5507 75.3562 69.7525C75.5429 69.9543 75.6859 70.1926 75.7762 70.4523C75.8665 70.712 75.9022 70.9875 75.8809 71.2616V74.0447C75.8825 74.3061 75.8324 74.5652 75.7334 74.8071C75.6345 75.0491 75.4887 75.2691 75.3044 75.4545C75.1202 75.6398 74.901 75.787 74.6597 75.8873C74.4184 75.9877 74.1595 76.0394 73.8982 76.0394Z" fill="white"/>
<path d="M73.8974 69.8999C74.2565 69.903 74.5998 70.0479 74.8525 70.3029C75.1053 70.5579 75.2472 70.9025 75.2471 71.2616V74.0446C75.2649 74.2333 75.243 74.4237 75.1829 74.6035C75.1229 74.7833 75.0259 74.9485 74.8983 75.0887C74.7707 75.2289 74.6152 75.3409 74.4419 75.4175C74.2685 75.4941 74.081 75.5337 73.8914 75.5337C73.7019 75.5337 73.5144 75.4941 73.341 75.4175C73.1677 75.3409 73.0122 75.2289 72.8846 75.0887C72.757 74.9485 72.66 74.7833 72.6 74.6035C72.5399 74.4237 72.518 74.2333 72.5358 74.0446V71.2616C72.5358 70.9004 72.6792 70.5541 72.9346 70.2987C73.1899 70.0434 73.5363 69.8999 73.8974 69.8999ZM73.8974 68.6338C73.2015 68.6369 72.5349 68.9148 72.0428 69.4069C71.5506 69.899 71.2728 70.5656 71.2696 71.2616V74.0446C71.2454 74.4038 71.2952 74.7641 71.416 75.1033C71.5367 75.4424 71.7259 75.7531 71.9717 76.0161C72.2176 76.2791 72.5148 76.4888 72.8451 76.6321C73.1753 76.7755 73.5314 76.8495 73.8914 76.8495C74.2515 76.8495 74.6076 76.7755 74.9378 76.6321C75.2681 76.4888 75.5653 76.2791 75.8111 76.0161C76.057 75.7531 76.2462 75.4424 76.3669 75.1033C76.4877 74.7641 76.5375 74.4038 76.5133 74.0446V71.2616C76.5133 70.5667 76.238 69.9001 75.7478 69.4077C75.2576 68.9152 74.5923 68.6369 73.8974 68.6338Z" fill="#353B50"/>
<path d="M88.3266 53.2017C87.3434 53.2035 86.3627 53.1035 85.4002 52.9031C82.7654 52.382 80.3263 51.1418 78.353 49.3198L78.0424 48.9614L73.2646 23.03H84.9941C85.9523 23.029 86.8887 23.3162 87.6816 23.8542C88.4697 24.3988 89.0803 25.1631 89.4374 26.052L96.7594 44.4942C97.0562 45.2399 97.1997 46.0379 97.1812 46.8403C97.1627 47.6427 96.9827 48.4332 96.6519 49.1645C96.3336 49.8856 95.8735 50.5354 95.2989 51.0751C94.7243 51.6147 94.0471 52.0333 93.3074 52.3059C91.7124 52.8936 90.0265 53.1969 88.3266 53.2017Z" fill="#FFE3EC"/>
<path d="M85.0181 23.675C85.869 23.6638 86.7028 23.9139 87.407 24.3917C88.0948 24.863 88.627 25.5283 88.9359 26.3028L96.2459 44.745C96.5136 45.4096 96.6442 46.1215 96.6299 46.8379C96.6155 47.5542 96.4564 48.2603 96.1622 48.9136C95.8773 49.5573 95.4662 50.1373 94.9534 50.6194C94.4405 51.1015 93.8362 51.476 93.1761 51.7206C90.7509 52.6062 88.1278 52.8027 85.5977 52.2883C83.0677 51.7738 80.7296 50.5685 78.8428 48.8061L78.6756 48.6509L74.0531 23.675H85.0181ZM85.0181 22.4089H72.5361L72.8109 23.8781L77.3856 48.8539L77.4572 49.26L77.7678 49.5467L77.9231 49.702C79.9734 51.6296 82.522 52.9452 85.2809 53.5003C86.2833 53.7047 87.3036 53.8087 88.3267 53.8109C90.1082 53.8142 91.876 53.4987 93.5464 52.8792C95.0916 52.3426 96.3735 51.236 97.1297 49.7856L97.297 49.4153C97.66 48.6085 97.8566 47.7368 97.8751 46.8522C97.8936 45.9677 97.7335 45.0885 97.4045 44.2673L90.0825 25.825C89.6848 24.8152 88.9926 23.9483 88.0959 23.337C87.1991 22.7257 86.1392 22.3981 85.0539 22.397L85.0181 22.4089Z" fill="#353B50"/>
<path d="M72.6432 23.675L77.2419 48.7584L76.9671 49.0092C74.4039 51.3285 71.0681 52.6087 67.6114 52.5999C64.1547 52.5911 60.8254 51.2938 58.2741 48.9614L58.0591 48.7584V23.675H72.6432ZM73.7302 22.4089H56.793V49.26L57.1991 49.6303L57.4141 49.8334C59.4947 51.7438 62.0667 53.0363 64.8412 53.5659C67.6158 54.0955 70.483 53.8412 73.121 52.8314C74.8515 52.1674 76.4433 51.1872 77.8152 49.9409L78.0899 49.702L78.6155 49.2242L78.496 48.5314L73.8974 23.4481L73.7302 22.4089Z" fill="#353B50"/>
<path d="M47.0472 53.2017C43.4605 53.2042 40.0004 51.8764 37.3363 49.475L36.7988 48.9614L41.5766 23.0181H57.3074V48.9614L56.8894 49.3556C54.2274 51.8041 50.7476 53.1713 47.1308 53.1897L47.0472 53.2017Z" fill="#FFE3EC"/>
<path d="M56.6738 23.675V48.7583L56.4588 48.9614C53.9008 51.2707 50.5764 52.5477 47.1302 52.5447H47.0466C43.6126 52.5399 40.302 51.2634 37.7538 48.9614L37.4791 48.7105L42.0777 23.6272H56.6738M57.9399 22.3611H41.0266L40.8355 23.4002L36.2369 48.4836L36.1055 49.1764L36.631 49.6541L36.9057 49.905C39.6918 52.4049 43.3033 53.7874 47.0466 53.7869H47.1302C50.906 53.7677 54.539 52.3409 57.3188 49.7855L57.5338 49.5825L57.9399 49.2122V22.4089V22.3611Z" fill="#353B50"/>
<path d="M40.6804 23.675L36.0938 48.6508L35.9385 48.7942C34.6537 50.0095 33.1445 50.9629 31.4952 51.6011C29.8718 52.244 28.1409 52.5723 26.3949 52.5686C24.7648 52.5694 23.1473 52.2823 21.6171 51.7206C20.9614 51.4814 20.3597 51.1143 19.8471 50.6407C19.3345 50.167 18.9211 49.5962 18.631 48.9614C18.3349 48.3089 18.1738 47.6032 18.1574 46.8868C18.141 46.1705 18.2696 45.4582 18.5354 44.7928L25.8574 26.2669C26.1621 25.4921 26.6931 24.827 27.3813 24.3583C28.0695 23.8896 28.8828 23.639 29.7154 23.6392H40.6804M42.1974 22.3731H29.7154C28.628 22.3715 27.5657 22.7006 26.6696 23.3167C25.7714 23.9269 25.0767 24.7923 24.6749 25.8011L17.3649 44.2792C17.0331 45.0998 16.8716 45.9793 16.8901 46.8642C16.9086 47.7492 17.1067 48.6211 17.4724 49.4272C17.8228 50.2266 18.3316 50.9468 18.968 51.5441C19.6044 52.1415 20.3552 52.6038 21.1752 52.9031C22.8462 53.5203 24.6135 53.8358 26.3949 53.8347C28.2874 53.8294 30.1626 53.473 31.9252 52.7836C33.7235 52.0807 35.3698 51.0385 36.7746 49.7139L36.9299 49.5705L37.2285 49.2839L37.3121 48.8778L41.9227 23.8781L42.1974 22.385V22.3731Z" fill="#353B50"/>
</svg>
